<svg width="24" height="24" viewBox="0 0 24 24" fill="none" xmlns="http://www.w3.org/2000/svg">
<path d="M3.37501 12C3.37501 12.0995 3.41452 12.1949 3.48485 12.2652C3.55517 12.3355 3.65056 12.375 3.75001 12.375H19.3444L13.2347 18.4847C13.1643 18.5551 13.1248 18.6505 13.1248 18.75C13.1248 18.8495 13.1643 18.945 13.2347 19.0153C13.3051 19.0857 13.4005 19.1252 13.5 19.1252C13.5995 19.1252 13.695 19.0857 13.7653 19.0153L20.5153 12.2653C20.5502 12.2305 20.5778 12.1892 20.5967 12.1436C20.6156 12.0981 20.6253 12.0493 20.6253 12C20.6253 11.9507 20.6156 11.9019 20.5967 11.8564C20.5778 11.8109 20.5502 11.7695 20.5153 11.7347L13.7653 4.98471C13.7305 4.94987 13.6891 4.92223 13.6436 4.90338C13.5981 4.88452 13.5493 4.87482 13.5 4.87482C13.4507 4.87482 13.4019 4.88452 13.3564 4.90338C13.3109 4.92223 13.2695 4.94987 13.2347 4.98471C13.1999 5.01955 13.1722 5.06092 13.1534 5.10644C13.1345 5.15196 13.1248 5.20075 13.1248 5.25003C13.1248 5.2993 13.1345 5.34809 13.1534 5.39361C13.1722 5.43913 13.1999 5.4805 13.2347 5.51534L19.3444 11.625H3.75001C3.65056 11.625 3.55517 11.6645 3.48485 11.7349C3.41452 11.8052 3.37501 11.9006 3.37501 12Z" fill="white"/>
</svg>
