<svg width="24" height="24" viewBox="0 0 24 24" fill="none" xmlns="http://www.w3.org/2000/svg">
<path d="M20.625 12C20.625 12.0994 20.5855 12.1948 20.5152 12.2651C20.4448 12.3355 20.3494 12.375 20.25 12.375H4.65561L10.7653 18.4847C10.8357 18.555 10.8752 18.6505 10.8752 18.75C10.8752 18.8495 10.8357 18.9449 10.7653 19.0153C10.6949 19.0856 10.5995 19.1252 10.5 19.1252C10.4005 19.1252 10.305 19.0856 10.2347 19.0153L3.48468 12.2653C3.44981 12.2305 3.42215 12.1891 3.40328 12.1436C3.38441 12.098 3.37469 12.0492 3.37469 12C3.37469 11.9507 3.38441 11.9019 3.40328 11.8564C3.42215 11.8108 3.44981 11.7695 3.48468 11.7347L10.2347 4.98465C10.2695 4.94981 10.3109 4.92217 10.3564 4.90332C10.4019 4.88446 10.4507 4.87476 10.5 4.87476C10.5493 4.87476 10.5981 4.88446 10.6436 4.90332C10.6891 4.92217 10.7305 4.94981 10.7653 4.98465C10.8001 5.01949 10.8278 5.06086 10.8466 5.10638C10.8655 5.1519 10.8752 5.20069 10.8752 5.24996C10.8752 5.29924 10.8655 5.34803 10.8466 5.39355C10.8278 5.43907 10.8001 5.48044 10.7653 5.51528L4.65561 11.625H20.25C20.3494 11.625 20.4448 11.6645 20.5152 11.7348C20.5855 11.8051 20.625 11.9005 20.625 12Z" fill="white"/>
</svg>
